<?xml version="1.0" encoding="utf-8"?>
<!-- Generator: Adobe Illustrator 27.4.0, SVG Export Plug-In . SVG Version: 6.00 Build 0)  -->
<svg version="1.1" id="Ebene_1" xmlns="http://www.w3.org/2000/svg" xmlns:xlink="http://www.w3.org/1999/xlink" x="0px" y="0px"
	 viewBox="0 0 1417.323 283.465" enable-background="new 0 0 1417.323 283.465" xml:space="preserve">
<g>
	<g>
		<path fill="#1C4050" d="M510.253,97.257h42.946c7.833,0,14.295,1.156,19.389,3.465c5.095,2.309,8.736,5.901,10.927,10.769
			c1.599,3.699,2.399,8.19,2.399,13.48c0,5.04-0.8,9.408-2.399,13.103c-4.465,9.744-14.57,14.616-30.317,14.616h-22.736v33.509
			h-20.21V97.257z M548.526,137.192c4.377,0,7.852-0.439,10.422-1.323c2.568-0.882,4.359-2.456,5.368-4.724
			c0.759-1.763,1.137-3.779,1.137-6.047c0-2.518-0.421-4.618-1.262-6.299c-1.011-2.182-2.78-3.716-5.306-4.597
			s-6.022-1.325-10.483-1.325h-17.938v24.315H548.526z"/>
		<path fill="#1C4050" d="M651.096,167.052h-44.967l-7.58,19.148h-21.599l37.136-88.942h29.052l37.138,88.942h-21.474
			L651.096,167.052z M644.908,151.429l-16.17-40.315h-0.253l-16.04,40.315H644.908z"/>
		<path fill="#1C4050" d="M697.2,184.058c-6.822-3.107-11.579-7.64-14.274-13.607c-1.684-3.777-2.525-7.976-2.525-12.598h21.6
			c0,2.522,0.463,4.831,1.39,6.931c1.262,2.94,3.6,5.122,7.011,6.549c3.411,1.431,7.642,2.143,12.693,2.143
			c4.548,0,8.442-0.586,11.686-1.763c3.24-1.175,5.409-2.897,6.505-5.165c0.588-1.259,0.884-2.645,0.884-4.158
			c0-1.511-0.296-2.813-0.884-3.904c-0.843-1.847-2.381-3.379-4.611-4.599c-2.233-1.216-4.757-2.204-7.578-2.959
			c-2.823-0.759-6.591-1.595-11.306-2.522l-6.063-1.259c-7.159-1.595-13.032-3.631-17.621-6.11
			c-4.591-2.477-7.854-5.815-9.79-10.015c-1.18-2.772-1.768-5.879-1.768-9.324c0-3.443,0.672-6.719,2.021-9.826
			c1.6-3.611,4.188-6.697,7.769-9.26c3.577-2.561,7.895-4.513,12.946-5.858c5.053-1.341,10.526-2.016,16.423-2.016
			c9.009,0,16.776,1.511,23.304,4.536c6.526,3.024,11.094,7.392,13.705,13.101c1.517,3.529,2.274,7.476,2.274,11.844h-20.968
			c-0.169-2.772-0.631-4.995-1.39-6.676c-2.442-5.374-8.209-8.063-17.305-8.063c-4.042,0-7.601,0.566-10.672,1.7
			c-3.076,1.134-5.117,2.793-6.127,4.977c-0.424,0.925-0.633,2.059-0.633,3.4c0,1.345,0.21,2.438,0.633,3.277
			c0.672,1.595,1.978,2.94,3.914,4.031c1.937,1.093,4.147,1.975,6.632,2.645c2.484,0.675,5.956,1.472,10.421,2.395
			c1.345,0.25,3.452,0.714,6.316,1.386c5.22,1.091,9.768,2.309,13.641,3.654c3.873,1.343,7.284,3.109,10.232,5.29
			c2.946,2.186,5.179,4.872,6.694,8.063c1.264,2.856,1.896,6.258,1.896,10.203c0,3.949-0.717,7.56-2.148,10.835
			c-2.611,5.797-7.389,10.142-14.336,13.041c-6.947,2.895-15.347,4.347-25.199,4.347C712.484,188.721,704.022,187.165,697.2,184.058
			z"/>
		<path fill="#1C4050" d="M788.905,184.058c-6.822-3.107-11.579-7.64-14.274-13.607c-1.684-3.777-2.525-7.976-2.525-12.598h21.599
			c0,2.522,0.463,4.831,1.39,6.931c1.262,2.94,3.6,5.122,7.011,6.549c3.411,1.431,7.642,2.143,12.693,2.143
			c4.548,0,8.442-0.586,11.686-1.763c3.24-1.175,5.409-2.897,6.505-5.165c0.588-1.259,0.884-2.645,0.884-4.158
			c0-1.511-0.296-2.813-0.884-3.904c-0.843-1.847-2.381-3.379-4.611-4.599c-2.233-1.216-4.757-2.204-7.578-2.959
			c-2.823-0.759-6.591-1.595-11.306-2.522l-6.063-1.259c-7.159-1.595-13.032-3.631-17.621-6.11
			c-4.591-2.477-7.854-5.815-9.79-10.015c-1.18-2.772-1.768-5.879-1.768-9.324c0-3.443,0.672-6.719,2.021-9.826
			c1.599-3.611,4.188-6.697,7.769-9.26c3.577-2.561,7.895-4.513,12.946-5.858c5.053-1.341,10.526-2.016,16.423-2.016
			c9.009,0,16.776,1.511,23.304,4.536c6.526,3.024,11.094,7.392,13.705,13.101c1.517,3.529,2.274,7.476,2.274,11.844h-20.968
			c-0.169-2.772-0.631-4.995-1.39-6.676c-2.442-5.374-8.209-8.063-17.305-8.063c-4.042,0-7.601,0.566-10.672,1.7
			c-3.076,1.134-5.117,2.793-6.127,4.977c-0.424,0.925-0.633,2.059-0.633,3.4c0,1.345,0.21,2.438,0.633,3.277
			c0.672,1.595,1.978,2.94,3.914,4.031c1.937,1.093,4.147,1.975,6.632,2.645c2.484,0.675,5.956,1.472,10.422,2.395
			c1.345,0.25,3.452,0.714,6.316,1.386c5.22,1.091,9.768,2.309,13.641,3.654c3.873,1.343,7.284,3.109,10.232,5.29
			c2.946,2.186,5.179,4.872,6.694,8.063c1.264,2.856,1.896,6.258,1.896,10.203c0,3.949-0.718,7.56-2.148,10.835
			c-2.611,5.797-7.389,10.142-14.336,13.041c-6.947,2.895-15.347,4.347-25.199,4.347
			C804.188,188.721,795.726,187.165,788.905,184.058z"/>
		<path fill="#1C4050" d="M867.852,97.257h20.21v88.942h-20.21V97.257z"/>
		<path fill="#1C4050" d="M922.926,182.799c-7.749-3.947-13.474-9.576-17.179-16.884c-1.854-3.191-3.242-6.845-4.169-10.958
			c-0.927-4.115-1.388-8.526-1.388-13.23c0-8.315,1.431-15.58,4.293-21.795c3.538-8.063,9.326-14.278,17.368-18.645
			c8.043-4.368,17.831-6.551,29.369-6.551c11.451,0,21.178,2.163,29.18,6.488c8,4.329,13.768,10.437,17.305,18.329
			c2.946,6.385,4.422,13.777,4.422,22.174c0,8.567-1.517,16.084-4.548,22.551c-3.622,7.81-9.412,13.837-17.368,18.077
			c-7.958,4.24-17.664,6.365-29.116,6.365C940.06,188.721,930.673,186.745,922.926,182.799z M967.832,167.556
			c4.503-2.436,7.808-5.963,9.916-10.585c1.768-4.281,2.652-9.363,2.652-15.243c0-3.104-0.232-5.899-0.695-8.378
			c-0.465-2.477-1.16-4.806-2.085-6.992c-2.105-4.536-5.411-8.017-9.916-10.455c-4.505-2.434-10.041-3.654-16.61-3.654
			s-12.085,1.22-16.548,3.654c-4.463,2.438-7.749,5.92-9.852,10.455c-0.927,2.186-1.622,4.515-2.085,6.992
			c-0.463,2.479-0.695,5.274-0.695,8.378c0,5.965,0.925,11.044,2.78,15.243c2.103,4.622,5.409,8.149,9.916,10.585
			c4.505,2.436,10.041,3.652,16.61,3.652C957.788,171.208,963.325,169.992,967.832,167.556z"/>
		<path fill="#1C4050" d="M1014.125,97.257h21.725l46.612,62.864V97.257h19.831v88.942h-22.233l-46.104-62.11v62.11h-19.831V97.257z
			"/>
		<path fill="#1C4050" d="M1253.113,97.257l-30.064,88.942h-21.096l-20.588-64.123l-20.715,64.123h-20.968l-30.317-88.942h21.347
			l20.084,62.36l19.706-62.36h21.727l19.578,62.235l19.957-62.235H1253.113z"/>
		<path fill="#1C4050" d="M1260.186,97.257h66.82v16.125h-46.61v20.031h46.232v15.748h-46.232v20.913h46.61v16.125h-66.82V97.257z"
			/>
		<path fill="#1C4050" d="M1417.32,161.257c0,3.863-0.674,7.349-2.021,10.455c-2.192,4.872-5.981,8.503-11.369,10.898
			c-5.389,2.393-11.916,3.588-19.579,3.588h-44.083V97.257h44.336c6.822,0,12.525,1.05,17.115,3.15
			c4.589,2.1,7.81,5.249,9.663,9.449c1.347,2.772,2.021,5.963,2.021,9.576c0,3.527-0.631,6.676-1.894,9.449
			c-2.192,4.954-6.486,8.313-12.884,10.076c8.419,1.934,13.978,5.881,16.673,11.844
			C1416.646,153.74,1417.32,157.226,1417.32,161.257z M1360.478,133.793h15.537c4.042,0,7.346-0.504,9.916-1.513
			c2.568-1.009,4.359-2.602,5.368-4.786c0.674-1.513,1.011-3.234,1.011-5.167c0-1.763-0.337-3.441-1.011-5.038
			c-1.01-2.184-2.821-3.738-5.43-4.661c-2.613-0.923-5.938-1.386-9.979-1.386h-15.411V133.793z M1395.593,160.121
			c0-2.182-0.337-3.986-1.01-5.417c-1.096-2.434-3.053-4.175-5.874-5.229c-2.823-1.048-6.423-1.575-10.8-1.575h-17.432v24.315
			h17.432c4.377,0,7.977-0.521,10.8-1.575c2.821-1.048,4.778-2.748,5.874-5.102C1395.256,163.775,1395.593,161.971,1395.593,160.121
			z"/>
	</g>
	<g>
		<path fill="#5B7B79" d="M159.067,252.874L40.709,133.482c-8.353-8.374-14.316-18.815-17.201-30.225
			c-5.64-22.324,0.947-46.284,17.201-62.559c25.424-25.402,66.649-25.575,92.246-0.517c3.143-6.566,6.975-12.83,11.453-18.707
			C110.221-8.428,58.06-7.093,25.489,25.478C3.897,47.07-4.865,78.909,2.648,108.531c3.832,15.177,11.732,29.062,22.84,40.171
			l0.011-0.011l133.568,134.773l56.79-57.306l-15.156-15.306L159.067,252.874z"/>
		<g>
			<path fill="#1C4050" d="M302.973,252.867l-56.805-57.3l-15.155-15.306l-46.349-46.758l-0.043-0.022
				c-2.54-2.54-4.865-5.296-6.954-8.202c-2.153-3.014-4.069-6.2-5.683-9.515c-1.937-3.983-3.466-8.181-4.564-12.508
				c-5.64-22.324,0.947-46.284,17.201-62.559c25.596-25.575,67.209-25.553,92.784,0c25.575,25.597,25.575,67.209,0,92.784
				l-31.237,31.495l15.156,15.285l31.301-31.559l0.022-0.043c33.949-33.971,33.928-89.232-0.022-123.181
				c-33.971-33.971-89.253-33.971-123.224,0c-21.592,21.592-30.333,53.431-22.841,83.053c2.045,8.094,5.253,15.845,9.515,22.992
				c1.851,3.143,3.918,6.178,6.178,9.063c2.174,2.82,4.564,5.532,7.126,8.073l0.022,0.043l46.457,46.866l15.155,15.284
				l71.961,72.606V252.867z"/>
		</g>
		<g>
			<path fill="#BEE2E9" d="M436.537,25.47c-32.571-32.572-84.754-33.906-118.94-3.983c4.456,5.877,8.267,12.184,11.388,18.772
				c25.596-25.144,66.908-24.993,92.332,0.43c16.253,16.275,22.841,40.235,17.201,62.559c-2.885,11.41-8.827,21.851-17.201,30.225
				L302.98,252.866l-0.006-0.006v30.591l0.006,0.006l133.6-134.806l-0.001-0.002c11.085-11.101,18.972-24.969,22.799-40.126
				C466.891,78.88,458.129,47.063,436.537,25.47z"/>
		</g>
	</g>
</g>
</svg>
